<svg width="24" height="24" viewBox="0 0 24 24" fill="none" xmlns="http://www.w3.org/2000/svg">
<rect width="24" height="24" rx="8" fill="#D76261" fill-opacity="0.1"/>
<path d="M14.9331 13.1333C15.4799 12.7224 15.9217 12.1878 16.2223 11.5734C16.5228 10.959 16.6737 10.2822 16.6625 9.59833C16.6513 8.91444 16.4784 8.24291 16.1579 7.63866C15.8374 7.03441 15.3785 6.51461 14.8185 6.12178C14.2586 5.72895 13.6137 5.47424 12.9364 5.37849C12.2592 5.28274 11.5689 5.34866 10.922 5.57087C10.2751 5.79308 9.69 6.16526 9.21455 6.65698C8.7391 7.14869 8.38681 7.74597 8.18647 8.39995C7.45314 10.4866 7.66647 11 6.06647 12.4533C5.74765 12.7147 5.51739 13.0682 5.40721 13.4655C5.29704 13.8628 5.31233 14.2844 5.45099 14.6726C5.58965 15.0609 5.84491 15.3968 6.18183 15.6344C6.51875 15.872 6.92087 15.9997 7.33314 16C9.99981 16 12.9331 14.8 14.9331 13.1333Z" stroke="#D76261" stroke-width="1.2" stroke-linecap="round" stroke-linejoin="round"/>
<path d="M16.3334 8L17.7934 11C18.0729 11.8592 18.0759 12.7845 17.802 13.6455C17.5282 14.5066 16.9912 15.2601 16.2668 15.8C14.2668 17.4667 11.3334 18.6667 8.66676 18.6667C8.2956 18.6662 7.93189 18.5624 7.61635 18.3669C7.30081 18.1715 7.04589 17.8921 6.8801 17.56L5.6001 15" stroke="#D76261" stroke-width="1.2" stroke-linecap="round" stroke-linejoin="round"/>
<path d="M12.3332 11.3333C13.2536 11.3333 13.9998 10.5871 13.9998 9.66667C13.9998 8.74619 13.2536 8 12.3332 8C11.4127 8 10.6665 8.74619 10.6665 9.66667C10.6665 10.5871 11.4127 11.3333 12.3332 11.3333Z" stroke="#D76261" stroke-width="1.2" stroke-linecap="round" stroke-linejoin="round"/>
</svg>
